<!DOCTYPE svg PUBLIC "-//W3C//DTD SVG 1.1//EN" "http://www.w3.org/Graphics/SVG/1.1/DTD/svg11.dtd">
<!-- Uploaded to: SVG Repo, www.svgrepo.com, Transformed by: SVG Repo Mixer Tools -->
<svg version="1.1" id="Layer_1" xmlns="http://www.w3.org/2000/svg" xmlns:xlink="http://www.w3.org/1999/xlink" viewBox="0 0 490 490" xml:space="preserve" width="64px" height="64px" fill="#000000">
<g id="SVGRepo_bgCarrier" stroke-width="0"/>
<g id="SVGRepo_tracerCarrier" stroke-linecap="round" stroke-linejoin="round"/>
<g id="SVGRepo_iconCarrier"> <g id="XMLID_2240_"> <g id="XMLID_1564_"> <path style="fill:#F7931E;" d="M337.404,428.75H167.908c-29.307,0-53.064,23.758-53.064,53.064v0.529h275.625v-0.529 C390.468,452.507,366.711,428.75,337.404,428.75z"/> </g> <g id="XMLID_1563_"> <rect x="199.063" y="398.125" style="fill:#FBB03B;" width="107.187" height="30.625"/> </g> <g id="XMLID_1561_"> <rect x="229.687" y="359.844" style="fill:#E9483D;" width="45.938" height="38.281"/> </g> <g id="XMLID_1644_"> <path style="fill:#F7931E;" d="M322.811,130.156H151.876c-33.138,0-60.001-26.863-60.001-60.001V7.657h230.936 c33.138,0,60.001,26.863,60.001,60.001v2.498C382.812,103.293,355.949,130.156,322.811,130.156z"/> </g> <g id="XMLID_1645_"> <path style="fill:#FBB03B;" d="M290.937,130.156H150.166c-32.193,0-58.29-26.098-58.29-58.291V7.657h199.062L290.937,130.156 L290.937,130.156z"/> </g> <g id="XMLID_1426_"> <path style="fill:#ED6D64;" d="M137.813,199.063c-16.914,0-30.625-13.711-30.625-30.625s13.711-30.625,30.625-30.625"/> </g> <g id="XMLID_1664_"> <polygon style="fill:#FFFFFF;" points="114.844,107.187 91.875,91.192 91.875,7.657 114.844,7.657 "/> </g> <g id="XMLID_1322_"> <path style="fill:#E9483D;" d="M371.116,137.813c12.685,0,22.969,10.283,22.969,22.969c0,12.685-10.284,22.969-22.969,22.969"/> </g> <g id="XMLID_1352_"> <path style="fill:#ED6D64;" d="M253.79,359.844h-2.268c-62.8,0-113.71-50.91-113.71-113.71V130.156H367.5v115.977 C367.5,308.934,316.59,359.844,253.79,359.844z"/> </g> <g id="XMLID_1320_"> <path style="fill:#E9483D;" d="M252.656,130.156h110.093v117.219c0,62.115-47.979,112.468-110.093,112.468L252.656,130.156 L252.656,130.156z"/> </g> <g id="XMLID_1475_"> <polygon style="fill:#FFFFFF;" points="160.781,306.25 137.813,277.736 137.813,130.156 160.781,130.156 "/> </g> <g id="XMLID_1321_"> <circle style="fill:#F7931E;" cx="252.656" cy="313.906" r="22.969"/> </g> <g id="XMLID_1613_"> <circle style="fill:#FBB03B;" cx="245" cy="306.25" r="15.313"/> </g> <g id="XMLID_995_"> <path style="fill:#757575;" d="M359.843,76.563h-15.312V61.25c0-8.444-6.869-15.312-15.312-15.312h-15.313V30.625h15.313 c16.886,0,30.625,13.739,30.625,30.626L359.843,76.563L359.843,76.563z"/> </g> <path style="fill:#757575;" d="M336.875,421.093h-22.969v-30.625h-30.625v-26.844c52.776-13.633,91.875-61.649,91.875-118.625 v-46.713c17.451-3.557,30.625-19.019,30.625-37.505c0-18.488-13.173-33.955-30.625-37.512v-6.16 c9.519-10.776,15.313-24.916,15.313-40.391V61.093C390.469,27.406,363.062,0,329.375,0H84.219v68.907 c0,28.264,17.112,52.598,41.516,63.213c-15.206,5.071-26.203,19.43-26.203,36.317c0,18.487,13.173,33.954,30.625,37.511V245 c0,56.976,39.099,104.991,91.874,118.624v26.844h-30.625v30.625h-22.969c-33.773,0-61.25,27.477-61.25,61.25V490h290.937v-7.657 C398.125,448.57,370.648,421.093,336.875,421.093z M390.469,160.782c0,9.981-6.402,18.491-15.313,21.651V139.13 C384.067,142.29,390.469,150.801,390.469,160.782z M99.532,68.907V15.313h229.844c25.244,0,45.781,20.537,45.781,45.78v15.626 c0,25.243-20.537,45.78-45.781,45.78h-176.25C123.574,122.499,99.532,98.458,99.532,68.907z M114.844,168.437 c0-9.981,6.401-18.491,15.313-21.651v43.303C121.245,186.928,114.844,178.419,114.844,168.437z M145.469,245V137.377 c2.515,0.279,5.067,0.435,7.656,0.435h176.25c11.091,0,21.492-2.986,30.468-8.174v61.714c-0.002,0.249-0.3,25.217-11.191,51.822 c-13.323,32.548-35.954,52.695-67.322,59.987c-4.361-11.602-15.567-19.882-28.674-19.882c-16.887,0-30.625,13.739-30.625,30.626 c0,16.886,13.738,30.626,30.625,30.626c15.33,0,28.064-11.324,30.281-26.047c34.185-7.429,60.31-28.45,76.207-61.283 c-6.077,53.378-51.512,94.985-106.488,94.985C193.553,352.187,145.469,304.103,145.469,245z M267.969,313.906 c0,8.444-6.869,15.312-15.312,15.312c-8.443,0-15.313-6.869-15.313-15.312c0-8.444,6.87-15.312,15.313-15.312 C261.099,298.594,267.969,305.462,267.969,313.906z M237.343,366.545c5.018,0.628,10.128,0.955,15.313,0.955 s10.295-0.327,15.312-0.955v23.923h-30.625L237.343,366.545L237.343,366.545z M206.719,405.782h91.875v15.311h-91.875V405.782z M123.138,474.687c3.656-21.698,22.577-38.28,45.299-38.28h22.969h7.656h114.843h22.969c22.722,0,41.644,16.583,45.299,38.28 H123.138z"/> </g> </g>
</svg>